<svg version="1.1" xmlns="http://www.w3.org/2000/svg" viewBox="0 0 250 250"><desc>Created with Snap</desc><defs></defs><g transform="matrix(0.0252,0,0,0.0252,57.4894,157.8336)"><g transform="matrix(23.2873,0,0,23.2873,-1976.1164,-5961.5246)">
<g id="gSkpnz10998n">
	<g>
		<path d="M399.9227,201.10765c0.92212-9.97762-6.44376-18.84813-16.42413-19.77577
			c-0.92175-0.08559-1.82938-0.07799-2.72733-0.02623c0.89362-0.13527,1.78366-0.3382,2.66385-0.60875
			c9.57727-2.94856,14.97192-13.14151,12.02338-22.72157c-2.38779-7.75859-9.52502-12.77225-17.25568-12.82539
			c2.38293-1.63855,4.35623-3.83409,5.74857-6.46446c2.27216-4.29031,2.73596-9.20734,1.30585-13.84828
			c-1.42734-4.63818-4.57742-8.44535-8.86774-10.71751c-4.29584-2.27492-9.21286-2.73598-13.85104-1.30587
			c-5.22952,1.60818-9.19751,5.3836-11.25552,10.0342c-0.11234-0.33406-0.16858-0.67778-0.30405-1.00632
			c-1.11035-2.69456-2.90042-4.90046-5.07889-6.53349c1.45273,0.36305,2.94012,0.56735,4.43561,0.56735
			c4.09155,0,8.20795-1.37213,11.59546-4.18541c7.71097-6.40234,8.77664-17.8846,2.3743-25.59557
			c-5.19275-6.24912-13.71524-8.12924-20.86456-5.21105c4.18146-6.49345,3.90018-15.21765-1.28827-21.46401
			c-3.10315-3.73539-7.47354-6.04068-12.30774-6.48793c-4.83972-0.44725-9.55795,1.01598-13.28781,4.11639
			c-0.78235,0.64948-1.47775,1.36316-2.12241,2.10789c0.59927-0.78822,1.15283-1.61853,1.62546-2.51097
			c2.26938-4.29308,2.73596-9.21286,1.30585-13.85104c-1.42734-4.64094-4.57742-8.44812-8.86777-10.72027
			c-4.29031-2.26663-9.21008-2.73874-13.85101-1.30587c-2.84195,0.8738-5.36584,2.39984-7.42163,4.4325
			c0.52475-2.84295,0.36807-5.78737-0.50748-8.62895c-1.42734-4.64094-4.57742-8.44535-8.86774-10.71751
			c-4.29031-2.26939-9.21286-2.73874-13.85104-1.30587c-4.64096,1.42734-8.44812,4.57744-10.72028,8.87052
			c-2.54565,4.81211-2.68991,10.25783-0.88467,14.98505c-0.29799-0.14701-0.59064-0.30024-0.90158-0.43
			c-2.69214-1.11813-5.51733-1.41078-8.2112-1.02357c0.79132-0.47624,1.56538-0.98975,2.28923-1.59092
			c3.7354-3.10316,6.04068-7.47354,6.48793-12.30774c0.44727-4.8342-1.01321-9.55244-4.11362-13.28783
			c-3.10316-3.73539-7.47354-6.04068-12.30774-6.48793c-8.04849-0.75647-15.43059,3.94936-18.43401,11.0709
			c-0.60669-2.82846-1.88495-5.48989-3.78647-7.78c-3.10179-3.73539-7.47217-6.04068-12.30637-6.48793
			c-4.8342-0.44449-9.55521,1.01046-13.28922,4.11362c-3.7354,3.10316-6.03929,7.47354-6.48793,12.30774
			c-0.09267,1.00149-0.08386,1.99469-0.01501,2.97893c-0.13182-0.97181-0.32233-1.945-0.61998-2.91267
			c-1.42873-4.63818-4.57881-8.44535-8.87051-10.71751c-4.29308-2.27492-9.21286-2.73597-13.84966-1.30587
			c-4.64095,1.42734-8.44675,4.57744-10.7189,8.86776c-1.39041,2.62692-2.09529,5.49058-2.11151,8.38116
			c-1.63889-2.38121-3.8327-4.35313-6.46083-5.74458c-4.2917-2.27216-9.21286-2.73597-13.84828-1.30311
			c-4.64095,1.42735-8.44674,4.57744-10.71889,8.86776c-2.27077,4.29032-2.7346,9.2101-1.30725,13.85104
			c1.61405,5.2428,5.42053,9.18526,10.08822,11.23862c-0.35149,0.11734-0.71316,0.17807-1.05894,0.32095
			c-2.66092,1.09467-4.87596,2.8961-6.5485,5.14893c1.38369-5.44848,0.25555-11.4581-3.60166-16.10387
			c-6.40097-7.70821-17.88322-8.77389-25.59696-2.37155c-6.24774,5.19035-8.12872,13.71438-5.21105,20.86353
			c-6.49172-4.18126-15.2142-3.8969-21.464,1.28931c-3.73539,3.1004-6.0393,7.47078-6.48793,12.30774
			c-0.44725,4.8342,1.0146,9.55244,4.11638,13.28783c0.6381,0.76889,1.34211,1.46047,2.08062,2.10374
			c-0.78114-0.59081-1.60231-1.13746-2.48508-1.60403c-4.29031-2.27216-9.20734-2.73874-13.84966-1.30863
			c-4.64094,1.42735-8.44674,4.57745-10.71751,8.86776c-2.27216,4.29308-2.73598,9.21286-1.30725,13.85104
			c0.87397,2.84158,2.39984,5.36565,4.43233,7.42109c-7.59416-1.38801-15.54843,2.1983-19.34628,9.37575
			c-2.27078,4.29031-2.73597,9.2101-1.30725,13.85104s4.57744,8.44536,8.86914,10.71751
			c2.65867,1.40526,5.55615,2.1203,8.48124,2.1203c1.79729,0,3.60287-0.27055,5.36842-0.81444
			c0.40981-0.12631,0.8046-0.2816,1.20095-0.43414c-0.15478,0.31198-0.35632,0.59219-0.49142,0.91728
			c-1.10606,2.6566-1.39888,5.4968-0.98924,8.27142c-2.87419-4.82936-7.922-8.28108-13.93438-8.84015
			c-4.83282-0.43344-9.55382,1.01323-13.28922,4.11639c-3.73539,3.10315-6.0393,7.47354-6.48655,12.30774
			s1.01322,9.55244,4.115,13.28783c1.90117,2.28941,4.28272,4.03494,6.95227,5.1517
			c-2.82846,0.60599-5.4911,1.87804-7.77913,3.77956c-3.73539,3.10316-6.0393,7.47354-6.48655,12.30774
			s1.01322,9.55244,4.11501,13.28784s7.47354,6.04068,12.30774,6.48793c0.56597,0.05246,1.12918,0.0773,1.68824,0.0773
			c0.41999,0,0.83342-0.03036,1.24737-0.05936c-0.96284,0.13528-1.92257,0.32785-2.86936,0.61981
			c-4.64094,1.42734-8.44673,4.57744-10.71889,8.86775c-2.27078,4.29031-2.73459,9.2101-1.30725,13.85104
			c2.38949,7.76205,9.54037,12.7688,17.26583,12.81987c-2.38777,1.63992-4.36382,3.83755-5.75735,6.47
			c-2.27077,4.29031-2.73459,9.21008-1.30725,13.85104c2.40192,7.80206,9.61318,12.82953,17.38351,12.82953
			c1.76693,0,3.56146-0.25952,5.33529-0.80615c5.22934-1.60956,9.19699-5.38498,11.25587-10.03284
			c0.11216,0.33337,0.16841,0.67709,0.30369,1.00494c1.09743,2.66074,2.89869,4.87491,5.151,6.54727
			c-5.44728-1.38315-11.45689-0.254-16.10318,3.6015c-7.71098,6.40512-8.77389,17.88736-2.37155,25.59833
			c3.59045,4.32346,8.77665,6.5542,14.00013,6.5542c2.34669,0,4.68442-0.50522,6.90447-1.41974
			c-1.59869,2.44608-2.59052,5.25867-2.86815,8.25278c-0.44725,4.8342,1.0146,9.55243,4.11639,13.28784
			c3.58907,4.32343,8.77389,6.55695,13.99737,6.55695c4.09292,0,8.21068-1.37213,11.59821-4.18539
			c0.7625-0.63293,1.44875-1.33072,2.08839-2.06235c-0.5853,0.77512-1.12797,1.59024-1.59145,2.46542
			c-2.27077,4.29031-2.73459,9.21008-1.30724,13.85104c1.42872,4.64093,4.57882,8.44534,8.86913,10.7175
			c2.65868,1.40524,5.55616,2.1203,8.48125,2.1203c1.79729,0,3.60287-0.27054,5.36842-0.81442
			c2.84365-0.87451,5.36859-2.40192,7.42455-4.43597c-1.39077,7.59433,2.19554,15.55173,9.3723,19.35269
			c2.70422,1.43008,5.60722,2.10651,8.47158,2.10651c6.52245,0,12.8392-3.5173,16.09697-9.6684v-0.00278
			c2.55945-4.83557,2.69508-10.31097,0.86276-15.05408c0.31525,0.15668,0.59822,0.35962,0.92625,0.49628
			c1.93947,0.80615,3.97833,1.20923,6.01721,1.20923c0.74748,0,1.49083-0.11111,2.23351-0.21948
			c-0.80754,0.48315-1.59265,1.01254-2.33014,1.62476c-3.7354,3.10315-6.03931,7.47354-6.48793,12.30774
			c-0.44725,4.8342,1.01321,9.55243,4.11501,13.28784c3.10316,3.73538,7.47354,6.04068,12.30774,6.48792
			c0.57288,0.05246,1.14436,0.08008,1.71309,0.08008c4.22682,0,8.28384-1.46048,11.57613-4.1937
			c2.28717-1.90015,4.03046-4.27859,5.14703-6.94485c0.60738,2.82571,1.88358,5.483,3.78284,7.77032
			c3.10316,3.73541,7.47356,6.04068,12.30913,6.48795c0.56596,0.05246,1.12918,0.0773,1.68825,0.0773
			c9.27222,0,17.2151-7.08978,18.08752-16.50143c0.09111-0.98492,0.08264-1.96155,0.01759-2.92993
			c0.13441,0.96146,0.32648,1.92087,0.61739,2.86642c2.40192,7.80209,9.61456,12.82956,17.38351,12.82956
			c1.76694,0,3.56146-0.25952,5.33667-0.80618c4.64095-1.42734,8.44536-4.57742,10.71751-8.87051
			c1.39128-2.62692,2.09685-5.49057,2.11237-8.38116c1.63788,2.38123,3.83081,4.35312,6.45999,5.7446
			c2.65866,1.40524,5.55753,2.1203,8.48123,2.1203c1.7973,0,3.60287-0.27057,5.36981-0.81445
			c9.58005-2.94855,14.9747-13.14151,12.02338-22.71878c-1.42734-4.63818-4.57745-8.44537-8.86777-10.71753
			c-0.37875-0.20084-0.76785-0.36993-1.15558-0.54181c0.33078-0.11111,0.6683-0.16565,0.99545-0.30023
			c2.6868-1.10846,4.88699-2.89197,6.51727-5.06265c-0.22052,0.89035-0.39603,1.7966-0.48212,2.72699
			c-0.44727,4.8342,1.01321,9.55246,4.11639,13.28784c3.1004,3.73538,7.47076,6.04068,12.30774,6.48795
			c0.57147,0.05243,1.14023,0.08005,1.70895,0.08005c4.22681,0,8.28522-1.46048,11.57889-4.19644
			c6.24771-5.18759,8.1282-13.70886,5.21243-20.858c2.42795,1.56952,5.21191,2.54755,8.17477,2.82153
			c0.5715,0.05246,1.14023,0.08008,1.70895,0.08008c4.22681,0,8.28522-1.46048,11.57889-4.19644
			c3.73538-3.1004,6.04068-7.47079,6.48792-12.30774c0.44727-4.8342-1.01321-9.55246-4.11636-13.28784
			c-0.64465-0.77649-1.35281-1.46667-2.09149-2.10788c0.78387,0.59427,1.60815,1.14435,2.49457,1.61368h0.00275
			c2.70285,1.42737,5.60449,2.10651,8.47021,2.10651c6.52106,0,12.83783-3.51727,16.09836-9.67114
			c3.80249-7.19055,2.28458-15.80432-3.15701-21.30112c1.08655,0.20291,2.18362,0.3382,3.28952,0.3382
			c1.79453,0,3.60287-0.27057,5.36703-0.81445c4.64093-1.42734,8.44812-4.57742,10.72028-8.86774
			c2.26938-4.29309,2.73596-9.21286,1.30588-13.85104c-1.42737-4.64096-4.57745-8.44812-8.87054-10.72028
			c-4.82419-2.54686-10.28613-2.68628-15.02283-0.8676c0.15323-0.30852,0.33337-0.59633,0.46777-0.91866
			c1.11624-2.68352,1.4108-5.50095,1.02878-8.1886c0.47311,0.78476,0.98923,1.54881,1.58572,2.26663
			c3.1004,3.7354,7.47354,6.04068,12.30774,6.48793c0.5715,0.05246,1.14301,0.08006,1.71173,0.08006
			c4.22681,0,8.28247-1.46046,11.57611-4.19644c3.73541-3.1004,6.03793-7.47079,6.48795-12.30775
			c0.74902-8.10439-3.97058-15.47855-11.11783-18.45885c2.84329-0.60324,5.5282-1.84906,7.82693-3.76024
			C397.17017,210.31499,399.47543,205.94185,399.9227,201.10765z M350.51505,135.53261
			c0.53043,1.72276,1.32864,3.284,2.2825,4.71204c-1.87027-0.64258-3.86066-0.93109-5.87451-0.82756
			c1.40906-1.26169,2.55981-2.77463,3.43893-4.48909C350.4165,135.12953,350.45328,135.33176,350.51505,135.53261z
			 M363.21811,152.89473c-0.17706-1.28723-0.49902-2.5724-1.01651-3.82857c-0.30093-0.73024-0.66641-1.41216-1.06052-2.07062
			c2.0929,0.84206,4.32864,1.34106,6.63565,1.35695C366.00256,149.5714,364.46649,151.1071,363.21811,152.89473z
			 M342.84549,143.17456c1.59299-0.65431,3.24396-0.96628,4.87009-0.96628c5.04126,0,9.83405,2.99272,11.87427,7.9346
			c2.6918,6.54039-0.43344,14.04982-6.97107,16.74438c-3.16388,1.3031-6.65082,1.29758-9.8147-0.01657
			c-3.16116-1.31691-5.62103-3.78508-6.92691-6.95175c-1.30588-3.16666-1.30035-6.65358,0.01657-9.81471
			C337.21063,146.94032,339.6788,144.48044,342.84549,143.17456z M353.6955,169.49901
			c2.55481-1.05188,4.67615-2.71114,6.2807-4.73758c0.10681,1.31277,0.34286,2.62347,0.74008,3.91208
			c0.37408,1.21545,0.87241,2.36948,1.47238,3.45793c-2.44403-1.57988-5.34753-2.50819-8.46832-2.50819
			c-0.17581,0-0.34665,0.02071-0.52109,0.02621C353.36264,169.58873,353.53348,169.56595,353.6955,169.49901z M366.54437,185.27434
			c0,7.07047-5.75357,12.82402-12.82404,12.82402s-12.82123-5.75356-12.82123-12.82402s5.75076-12.82402,12.82123-12.82402
			S366.54437,178.20387,366.54437,185.27434z M363.9863,202.93877c-1.45963-1.27344-3.15475-2.27423-5.01315-2.93959
			c1.77728-0.63637,3.41016-1.57367,4.82559-2.7691c-0.02158,0.1767-0.05936,0.34787-0.07593,0.52594
			C363.56027,199.51328,363.65723,201.25397,363.9863,202.93877z M366.54437,214.72401
			c0,7.07047-5.75357,12.82402-12.82404,12.82402s-12.82123-5.75356-12.82123-12.82402s5.75076-12.82401,12.82123-12.82401
			S366.54437,207.65355,366.54437,214.72401z M369.37146,214.72401c0-0.75784-0.07248-1.49774-0.17722-2.22728
			c1.63199,1.58263,3.52332,2.82983,5.591,3.69536c-2.10046,0.45207-4.1012,1.28447-5.93231,2.45781
			C369.17957,217.39305,369.37146,216.08235,369.37146,214.72401z M367.66266,178.19974
			c0.61447,0.4286,1.24841,0.83514,1.92139,1.19128c2.65866,1.40526,5.55753,2.12032,8.48123,2.12032
			c0.52283,0,1.04565-0.07248,1.56885-0.11803c-3.93814,0.47832-7.53015,2.24248-10.31357,4.88527
			c0.02139-0.33336,0.0509-0.66536,0.0509-1.00424C369.37146,182.72679,368.74683,180.32695,367.66266,178.19974z
			 M392.75836,158.8091c2.48752,8.0892-2.06784,16.69469-10.15704,19.18771c-8.07266,2.4875-16.6947-2.06786-19.18497-10.15706
			c-1.20648-3.91762-0.81442-8.07265,1.10434-11.69484c1.91876-3.62497,5.13235-6.28639,9.05273-7.49287
			c1.49637-0.46106,3.01205-0.67917,4.5029-0.67917C384.63879,147.97287,390.72916,152.21902,392.75836,158.8091z
			 M363.37219,115.51389c1.49084-0.4583,3.01758-0.68745,4.53326-0.68745c2.47092,0,4.91702,0.60462,7.16156,1.79178
			c3.62497,1.91877,6.28363,5.13236,7.49011,9.05273c1.20648,3.9176,0.81445,8.06989-1.10434,11.69208
			c-1.91876,3.62495-5.13235,6.28639-9.0527,7.49287c-8.08371,2.48474-16.6947-2.06786-19.18497-10.15707
			C350.72763,126.60963,355.28299,118.00416,363.37219,115.51389z M348.36713,122.91842
			c1.3031,3.16666,1.29758,6.65083-0.01935,9.81472c-1.31689,3.16115-3.78506,5.62103-6.95172,6.9269
			c-3.16391,1.30312-6.65085,1.29759-9.81473-0.01656c-3.16113-1.31691-5.62381-3.7851-6.92966-6.95175
			c-2.6918-6.53763,0.43344-14.04982,6.97107-16.74438c1.59299-0.65431,3.24396-0.96629,4.87009-0.96629
			C341.53409,114.98106,346.32687,117.97379,348.36713,122.91842z M350.30798,82.36471c4.40903,0,8.79044,1.88564,11.82184,5.53545
			c5.40567,6.51278,4.50842,16.20879-2.00436,21.61447c-6.51001,5.40569-16.20602,4.50566-21.61447-2.00159
			c-5.4057-6.51278-4.50842-16.20878,2.00159-21.61447C343.3728,83.52149,346.84866,82.36471,350.30798,82.36471z
			 M332.57883,93.86215c-0.66397-1.14091-1.42645-2.23903-2.40277-3.21498c-0.5582-0.55837-1.17853-1.00977-1.79486-1.466
			c2.28372-0.02485,4.55499-0.51558,6.7157-1.40664C333.87384,89.65189,333.04041,91.72113,332.57883,93.86215z M282.10291,51.2751
			c-1.03409-0.78338-2.16949-1.46393-3.42169-1.98503c-0.70056-0.29127-1.4118-0.50799-2.12616-0.69159
			c2.0882-0.89727,3.96487-2.1638,5.55838-3.73953C281.72363,46.96959,281.7233,49.13546,282.10291,51.2751z M260.827,58.81214
			c2.04852-4.92254,6.83026-7.89595,11.85773-7.89595c1.63992,0,3.30469,0.31749,4.90872,0.98561
			c6.52658,2.71389,9.62698,10.23713,6.91034,16.76647c-2.71664,6.52658-10.24539,9.62146-16.76645,6.91033
			C261.21075,72.86196,258.11035,65.33872,260.827,58.81214z M261.08893,53.23252c0.0954-1.88564-0.14307-3.75333-0.7023-5.51957
			c0.15582,0.08834,0.30023,0.1898,0.45969,0.27401c1.569,0.83032,3.22672,1.388,4.91962,1.73035
			C264.01538,50.57661,262.42636,51.76238,261.08893,53.23252z M287.11554,69.75603c1.0603-2.55099,1.38611-5.22417,1.08844-7.79104
			c1.00235,0.85172,2.09442,1.61163,3.2847,2.24179c1.13538,0.60048,2.32047,1.04704,3.52695,1.39352
			c-2.9313,0.62049-5.6283,2.05612-7.7952,4.22475c-0.14182,0.14218-0.23706,0.3099-0.37219,0.45554
			C286.93124,70.10114,287.03876,69.94032,287.11554,69.75603z M289.21927,71.82389
			c2.42123-2.42124,5.64035-3.75471,9.06656-3.75471c3.4234,0,6.64529,1.33347,9.06653,3.75471
			c4.99985,4.99985,4.99985,13.13599,0,18.13584c-5.00537,5.00261-13.13876,4.99709-18.13309,0
			C284.21942,84.95988,284.21942,76.82374,289.21927,71.82389z M314.18262,82.64355c1.16525,1.4025,2.5108,2.56066,3.95868,3.51797
			c-2.01178,0.12424-3.98386,0.63499-5.83517,1.53088c0.85242-1.76347,1.34885-3.63531,1.50156-5.54994
			C313.93588,82.30811,314.04785,82.48135,314.18262,82.64355z M310.04138,92.64601c2.50131-2.49854,5.78394-3.7492,9.06656-3.7492
			c3.28537,0,6.56799,1.25066,9.06927,3.7492c4.99985,4.99985,4.99985,13.13599,0,18.13583
			c-4.99985,4.99709-13.13046,4.99709-18.13583,0C305.04153,105.782,305.04153,97.64586,310.04138,92.64601z M318.36252,59.2235
			c2.78015-2.31081,6.20633-3.5449,9.77881-3.5449c0.47763,0,0.95801,0.02209,1.44116,0.06902
			c4.08325,0.37823,7.77448,2.32185,10.3945,5.47747c5.40567,6.51002,4.50842,16.20602-2.00162,21.61447
			c-6.51001,5.40569-16.20877,4.50842-21.61722-2.00159C310.95245,74.3252,311.84973,64.62919,318.36252,59.2235z
			 M310.01932,70.64364c-0.23331-0.26711-0.4136-0.5639-0.66812-0.81858c-1.79764-1.79729-3.9787-3.03414-6.33298-3.78164
			c0.77838-0.13321,1.55521-0.29472,2.3215-0.53077c3.28363-1.00977,6.13593-2.8961,8.3363-5.42432
			C311.33951,63.18252,310.10248,66.88892,310.01932,70.64364z M295.47806,33.4678c1.49084-0.4583,3.01758-0.68468,4.53326-0.68468
			c2.47095,0,4.91702,0.60186,7.16159,1.79177c3.62494,1.91601,6.28638,5.13237,7.49286,9.04997
			c1.2037,3.91761,0.81168,8.07264-1.10709,11.69484c-1.91602,3.62496-5.13239,6.28639-9.04999,7.49287
			c-3.92313,1.20372-8.07541,0.81168-11.69482-1.10709c-3.62497-1.91601-6.28641-5.13237-7.49289-9.04997
			c-1.2037-3.91761-0.81168-8.07264,1.10709-11.69484C288.34409,37.33571,291.56046,34.67427,295.47806,33.4678z M255.7802,24.74084
			c1.91603-3.62496,5.13237-6.28639,9.04997-7.49287c1.49084-0.4583,3.01758-0.68468,4.53326-0.68468
			c2.47095,0,4.91702,0.60186,7.16434,1.79177c3.62219,1.91601,6.28363,5.12961,7.49011,9.04997
			c1.20374,3.91761,0.81168,8.07265-1.10709,11.69484v0.00276c-1.91602,3.6222-5.12961,6.28087-9.04721,7.48735
			c-3.9314,1.20372-8.07816,0.80892-11.69485-1.10433C254.68692,41.52663,251.82118,32.21991,255.7802,24.74084z
			 M245.49614,39.59958c1.63994,0,3.3047,0.31749,4.90874,0.98561c6.52658,2.71389,9.62698,10.23713,6.91034,16.76647
			c-1.31415,3.16114-3.78232,5.62103-6.94899,6.9269c-3.17218,1.31139-6.65358,1.30587-9.81471-0.01656
			c-6.52934-2.71665-9.62975-10.23989-6.9131-16.76647C235.68695,42.57299,240.46869,39.59958,245.49614,39.59958z
			 M218.67615,19.9591c0.73575-7.94841,7.44179-13.93387,15.27425-13.93387c0.47209,0,0.94972,0.02209,1.42734,0.06626
			c4.08049,0.37823,7.77171,2.32185,10.39174,5.47747c2.62001,3.15286,3.85133,7.13949,3.47311,11.22274
			c-0.37823,4.0805-2.32185,7.77171-5.47748,10.39174c-3.15286,2.62002-7.13396,3.85135-11.22273,3.47587
			C224.11633,35.88076,217.89621,28.38788,218.67615,19.9591z M200.00056,41.02624
			c-0.63637-1.77728-1.57436-3.40961-2.76979-4.82523c0.17599,0.02139,0.34785,0.05798,0.52524,0.07454
			c0.57288,0.05246,1.14436,0.08007,1.71309,0.08007c1.18542,0,2.35016-0.14288,3.49573-0.36857
			C201.68034,37.45304,200.66989,39.15647,200.00056,41.02624z M148.36232,32.18401
			c1.25929,1.83181,2.82277,3.38891,4.60938,4.62714c-1.32347,0.17876-2.63693,0.4652-3.90414,0.98838
			c-0.71713,0.29541-1.37161,0.68606-2.02663,1.07534C147.8873,36.77043,148.35181,34.50449,148.36232,32.18401z
			 M143.19389,47.34093c1.31554-3.1639,3.78371-5.62379,6.95038-6.92966c1.5778-0.64879,3.23291-0.97457,4.8894-0.97457
			c1.66891,0,3.33922,0.3313,4.9267,0.99113c3.16252,1.31691,5.62241,3.78509,6.9269,6.95175
			c1.30586,3.16666,1.30035,6.65358-0.01657,9.81472c-1.31552,3.1639-3.78508,5.62379-6.95174,6.92966
			c-3.16667,1.30311-6.65221,1.29758-9.81473-0.01657c-3.16252-1.31691-5.62241-3.78508-6.9269-6.95174
			C141.87146,53.98898,141.87698,50.50207,143.19389,47.34093z M139.4592,53.12485c-1.27448-1.43494-2.80621-2.6076-4.54674-3.49796
			c0.20604-0.05521,0.41327-0.0773,0.61877-0.1408c1.73294-0.53353,3.32352-1.31001,4.75793-2.27147
			C139.62726,49.14098,139.3479,51.13153,139.4592,53.12485z M164.64151,39.99438c1.3421-0.09732,2.69112-0.29679,4.03062-0.70953
			c1.22667-0.37754,2.38208-0.87725,3.46277-1.47566c-1.58144,2.44402-2.51028,5.34771-2.51028,8.46882
			c0,0.17462,0.02054,0.34441,0.02623,0.51765c-0.06073-0.16151-0.08266-0.33199-0.14908-0.49281
			C168.45421,43.76152,166.75113,41.64121,164.64151,39.99438z M185.27573,33.45675c7.07184,0,12.82401,5.75079,12.82401,12.82125
			s-5.75217,12.82402-12.82401,12.82402c-7.07185,0-12.82402-5.75355-12.82402-12.82402S178.20387,33.45675,185.27573,33.45675z
			 M218.6651,31.15147c-1.26118-0.32854-2.57689-0.5218-3.9397-0.5218c-0.75819,0-1.49791,0.07247-2.22763,0.17738
			c1.58366-1.63234,2.83052-3.52488,3.6964-5.59342C216.65712,27.34982,217.5116,29.35141,218.6651,31.15147z M214.7254,33.45675
			c7.07047,0,12.82263,5.75079,12.82263,12.82125s-5.75217,12.82402-12.82263,12.82402
			c-7.07184,0-12.82402-5.75355-12.82402-12.82402S207.65356,33.45675,214.7254,33.45675z M189.62677,6.36757
			c2.78015-2.30805,6.20633-3.54213,9.77608-3.54213c0.48038,0,0.96214,0.02485,1.44667,0.06902
			c4.08188,0.37823,7.77309,2.32185,10.39311,5.47747c2.61864,3.15286,3.85272,7.13949,3.47449,11.22274
			c-0.37823,4.08049-2.32323,7.77171-5.47746,10.39173c-3.15424,2.61726-7.12292,3.85135-11.22275,3.47311
			c-4.08186-0.37823-7.77309-2.32185-10.39172-5.47747c-2.62003-3.15286-3.85411-7.13948-3.47588-11.22274
			S186.47253,8.98759,189.62677,6.36757z M181.4449,20.69762c0.45882,3.31575,1.81265,6.44997,4.00475,9.09
			c0.25952,0.31266,0.5406,0.59979,0.81738,0.89244c-0.32941-0.0214-0.65674-0.05039-0.9913-0.05039
			c-2.55791,0-4.96724,0.62947-7.10153,1.72137C180.52159,29.00355,181.72617,24.90373,181.4449,20.69762z M149.75775,14.73286
			c1.91876-3.62496,5.13237-6.28363,9.05135-7.49011c1.49223-0.4583,3.01758-0.68744,4.53604-0.68744
			c2.46817,0,4.91702,0.60462,7.16019,1.79177c3.62495,1.91877,6.28363,5.13237,7.49011,9.05273
			c2.49025,8.08645-2.06648,16.69193-10.15431,19.18495c-8.09473,2.48474-16.69745-2.06785-19.18633-10.15706
			C147.44832,22.5101,147.84036,18.35506,149.75775,14.73286z M115.51528,36.62894
			c-1.20648-3.91761-0.81445-8.07264,1.10294-11.69484c1.91877-3.62496,5.13237-6.28363,9.05135-7.49011
			c1.49223-0.4583,3.01896-0.68744,4.53741-0.68744c2.4668,0,4.91426,0.60462,7.15881,1.79177
			c3.62358,1.91601,6.28363,5.12961,7.48874,9.04997c2.49025,8.08921-2.06511,16.69469-10.15431,19.18771
			C126.61378,49.2873,118.00554,44.71814,115.51528,36.62894z M122.91842,51.634c1.59438-0.65707,3.24535-0.96629,4.87148-0.96629
			c5.04264,0,9.83404,2.99273,11.87016,7.9346c1.30586,3.16666,1.30034,6.65358-0.01657,9.81472
			c-1.31554,3.1639-3.78508,5.62379-6.95175,6.92966c-3.16666,1.30311-6.65082,1.29758-9.81472-0.01657
			c-3.16252-1.31691-5.62241-3.78508-6.9269-6.95174c-1.30587-3.16666-1.30035-6.65358,0.01656-9.81472
			C117.2822,55.39977,119.75176,52.93987,122.91842,51.634z M87.90016,37.87131c2.86159-2.37707,6.33746-3.53385,9.79401-3.53385
			c4.41179,0,8.79046,1.88564,11.82184,5.53545c2.61864,3.15562,3.85272,7.13948,3.47449,11.22274
			c-0.37823,4.08326-2.32323,7.77448-5.47747,10.39174c-3.15562,2.62001-7.15191,3.87067-11.22136,3.47587
			c-4.08326-0.37823-7.77309-2.32185-10.39311-5.47747C80.49149,52.97576,81.39014,43.27976,87.90016,37.87131z M49.29283,121.3199
			c-0.29834,0.71644-0.48435,1.45702-0.67243,2.19554c-0.88985-2.08787-2.16483-4.01975-3.79924-5.66866
			c1.0938,0.20223,2.19296,0.33406,3.28865,0.33406c1.09795,0,2.18243-0.13528,3.25501-0.3306
			C50.55107,118.91523,49.82118,120.04993,49.29283,121.3199z M49.74284,134.1881c0.89399,1.82973,2.10409,3.43376,3.592,4.76448
			c-1.90842-0.11319-3.81304,0.13873-5.66607,0.73645c0.10318-0.18015,0.21931-0.34993,0.3168-0.53421
			C48.83315,137.55353,49.4081,135.88048,49.74284,134.1881z M52.4236,141.692c1.6703,0,3.34059,0.3313,4.92945,0.9939
			c3.16114,1.31415,5.62103,3.78233,6.9269,6.94899c1.30587,3.16942,1.29897,6.65358-0.01656,9.81473
			c-1.31692,3.16389-3.78509,5.62379-6.95175,6.92966c-3.16805,1.3031-6.65496,1.30035-9.81472-0.01933h-0.00138
			c-3.16114-1.31415-5.62241-3.78232-6.9269-6.94897c-1.30587-3.16667-1.29897-6.65358,0.01656-9.81473
			c1.31691-3.16389,3.78509-5.62379,6.95175-6.92966C49.11338,142.01778,50.76849,141.692,52.4236,141.692z M58.81215,139.17137
			c-3.16114-1.31415-5.62241-3.78232-6.9269-6.94899c-1.30587-3.16666-1.29897-6.65357,0.01656-9.81471
			c1.31691-3.1639,3.78509-5.62379,6.95175-6.92966c1.57643-0.6488,3.23154-0.97457,4.88665-0.97457
			c1.6703,0,3.34059,0.3313,4.92944,0.9939c3.16114,1.31415,5.62103,3.78233,6.9269,6.94899
			c1.30587,3.16942,1.29897,6.65358-0.01656,9.81471c-1.31691,3.16391-3.78509,5.62379-6.95175,6.92967
			c-3.16942,1.3031-6.65634,1.30034-9.81472-0.01933H58.81215z M69.75604,112.88559
			c-2.53426-1.05532-5.23434-1.35073-7.88715-1.02564c0.87743-1.01529,1.68255-2.11272,2.33652-3.3475
			c0.601-1.13539,1.06637-2.31633,1.41285-3.52281c0.60773,2.85538,1.99314,5.57824,4.2068,7.79104
			c0.15737,0.15737,0.34355,0.26366,0.50575,0.41274C70.1322,113.10094,69.95948,112.97049,69.75604,112.88559z M71.8239,92.64601
			c2.49992-2.5013,5.78392-3.7492,9.06792-3.7492s6.56799,1.25066,9.06792,3.7492c4.99847,4.99985,4.99847,13.13599,0,18.13583
			c-4.99985,4.99709-13.13599,4.99709-18.13583,0C66.82405,105.782,66.82405,97.64586,71.8239,92.64601z M89.20293,71.5837
			c-0.02675-2.29356-0.48591-4.53258-1.34332-6.6246c1.82059,1.17611,3.84375,2.0085,5.98978,2.47094
			c-1.13591,0.6626-2.2285,1.42251-3.20083,2.39501C90.10433,70.36894,89.65518,70.9777,89.20293,71.5837z M86.1636,81.91055
			c0.13131,2.03265,0.64051,3.97627,1.51138,5.77288c-1.76865-0.85241-3.64687-1.34728-5.56633-1.49637
			c0.17307-0.13321,0.36581-0.23053,0.5349-0.37133C84.01948,84.67413,85.19732,83.35722,86.1636,81.91055z M92.64739,71.82389
			c4.99985-4.99709,13.13599-4.99709,18.13584,0c4.99985,4.99985,4.99985,13.13599,0,18.13584
			c-4.99985,4.99709-13.13599,4.99709-18.13584,0C87.64754,84.95988,87.64754,76.82374,92.64739,71.82389z M55.74763,70.41587
			c0.37823-4.08325,2.32323-7.77171,5.47747-10.39173c2.86159-2.37707,6.33747-3.53385,9.79402-3.53385
			c4.41041,0,8.78907,1.88564,11.82046,5.53545c2.62002,3.15562,3.8541,7.13949,3.47587,11.22274
			c-0.37823,4.08326-2.32323,7.77171-5.47746,10.39173c-3.15286,2.62003-7.12707,3.87896-11.22274,3.47588
			c-4.08188-0.37823-7.7731-2.32185-10.39174-5.47747C56.60349,78.48299,55.3694,74.49913,55.74763,70.41587z M69.35434,89.93212
			c0.42586,0.03934,0.84982,0.0497,1.27361,0.05936c-0.26193,0.22915-0.5532,0.40584-0.80289,0.65569
			c-1.8318,1.83112-3.04484,4.0239-3.77697,6.33816c-0.13322-0.77993-0.29869-1.55779-0.53543-2.32668
			c-1.00701-3.27433-2.88557-6.11798-5.40345-8.31421C62.77547,88.35983,65.94386,89.6167,69.35434,89.93212z M34.57489,92.82546
			c1.91739-3.6222,5.13237-6.28363,9.04997-7.49011c3.92313-1.20371,8.07264-0.81444,11.69622,1.10709
			c3.62358,1.91601,6.28363,5.12961,7.49011,9.04997c1.20647,3.9176,0.81444,8.07264-1.10433,11.69484
			c-3.95626,7.48183-13.26575,10.35308-20.74619,6.38578c-3.62358-1.91601-6.28363-5.13237-7.49011-9.04997
			C32.26408,100.60545,32.65612,96.45042,34.57489,92.82546z M36.43568,145.32524
			c-3.91623,1.20372-8.07264,0.81445-11.69622-1.10709c-3.62358-1.91602-6.28363-5.12961-7.49011-9.04997
			c-1.2051-3.9176-0.81306-8.07264,1.10433-11.69484c2.75116-5.19862,8.08507-8.16651,13.59291-8.16651
			c2.41986,0,4.87147,0.5715,7.15467,1.77797c7.47906,3.96178,10.34342,13.26852,6.38578,20.74758
			C43.56827,141.45734,40.35467,144.11877,36.43568,145.32524z M49.48747,264.46851
			c-0.5268-1.71033-1.29086-3.30472-2.25645-4.75345c1.64424,0.5632,3.33283,0.91315,5.03522,0.91315
			c0.28626,0,0.56925-0.06833,0.85516-0.0842c-1.42769,1.26859-2.59483,2.79257-3.48243,4.52292
			C49.58496,264.86743,49.54873,264.6673,49.48747,264.46851z M36.81495,247.06152c0.1798,1.31209,0.46537,2.6145,0.9832,3.87067
			c0.29368,0.71161,0.6833,1.3604,1.06895,2.01126c-2.12842-0.85724-4.37193-1.29344-6.63218-1.30518
			C34.01928,250.4104,35.56378,248.86365,36.81495,247.06152z M57.15565,256.82379c-3.16805,1.3031-6.6522,1.29758-9.81472-0.01657
			c-3.16252-1.31691-5.62379-3.78508-6.92828-6.95175c-1.30587-3.16666-1.30035-6.65358,0.01656-9.81471
			c1.31691-3.16391,3.78509-5.62379,6.95175-6.92966c1.59437-0.65709,3.24397-0.96629,4.87009-0.96629
			c5.04264,0,9.83543,2.99274,11.87291,7.93736c1.30587,3.16666,1.30035,6.65082-0.01656,9.81471
			C62.79049,253.05803,60.32231,255.51791,57.15565,256.82379z M46.30424,230.49936
			c-2.5246,1.03876-4.63231,2.72769-6.27552,4.81694c-0.10284-1.3383-0.33838-2.67455-0.74249-3.98869
			c-0.37495-1.21684-0.87484-2.37224-1.47618-3.46208c2.44419,1.58058,5.34823,2.5096,8.46934,2.5096
			c0.14753,0,0.29058-0.01794,0.43725-0.02209C46.57963,230.40549,46.44056,230.44276,46.30424,230.49936z M33.45676,214.72401
			c0-7.07047,5.75217-12.82401,12.82264-12.82401c7.07185,0,12.82402,5.75354,12.82402,12.82401
			s-5.75217,12.82402-12.82402,12.82402C39.20893,227.54803,33.45676,221.79448,33.45676,214.72401z M30.62968,185.27434
			c0,0.76474,0.07385,1.51086,0.18032,2.2473c-1.61801-1.56952-3.52488-2.8533-5.65347-3.73953
			c2.13136-0.45139,4.15176-1.2962,6.00617-2.49025C30.82673,182.56596,30.62968,183.896,30.62968,185.27434z M36.00137,197.04787
			c1.46237,1.27826,3.16183,2.28389,5.02573,2.95131c-1.77676,0.63637-3.40892,1.57367-4.82419,2.76842
			c0.02157-0.17601,0.05746-0.34717,0.07402-0.52525C36.44207,200.46161,36.33232,198.71954,36.00137,197.04787z
			 M33.45676,185.27434c0-7.07047,5.75217-12.82402,12.82264-12.82402c7.07185,0,12.82402,5.75356,12.82402,12.82402
			s-5.75217,12.82402-12.82402,12.82402C39.20893,198.09836,33.45676,192.3448,33.45676,185.27434z M6.09287,164.62338
			c0.37685-4.08049,2.32323-7.77171,5.47747-10.39172c2.78153-2.31081,6.20909-3.54213,9.78021-3.54213
			c0.47762,0,0.95938,0.02208,1.44115,0.06625c8.42879,0.78131,14.64892,8.27419,13.86761,16.70021
			c-0.37685,4.08049-2.32323,7.77171-5.47747,10.39174c-3.15562,2.62001-7.14363,3.83202-11.22274,3.47586
			c-4.08187-0.37822-7.77309-2.32184-10.39173-5.47746C6.94735,172.69327,5.71326,168.70665,6.09287,164.62338z M16.76069,215.85043
			c-4.08187-0.37823-7.77309-2.32185-10.39173-5.47746c-2.62002-3.15286-3.85411-7.1395-3.47449-11.22275
			c0.37685-4.08049,2.32323-7.77171,5.47747-10.39172c2.78153-2.31082,6.20909-3.54214,9.78021-3.54214
			c0.47762,0,0.95938,0.02209,1.44115,0.06627c8.42879,0.78131,14.64892,8.27417,13.86761,16.70021
			C32.68097,210.4061,25.20604,216.61243,16.76069,215.85043z M30.68006,213.72806c-0.02105,0.3306-0.05038,0.65984-0.05038,0.99596
			c0,2.54962,0.62533,4.95085,1.71119,7.08014c-0.61532-0.43001-1.24996-0.83722-1.92377-1.19406
			c-3.04277-1.61232-6.40114-2.29425-9.7495-2.05681C24.48823,218.02321,27.96997,216.29907,30.68006,213.72806z M7.24414,241.18925
			c-1.20648-3.9176-0.81444-8.07265,1.10295-11.69484c1.91877-3.62495,5.13237-6.28363,9.05135-7.49011
			c1.49223-0.4583,3.01758-0.68744,4.53603-0.68744c2.46817,0,4.91564,0.60461,7.16019,1.79178
			c3.62358,1.91876,6.28225,5.13235,7.48873,9.05273c1.20648,3.9176,0.81444,8.07263-1.10295,11.69484
			c-1.91877,3.62495-5.13237,6.28363-9.04997,7.4901C18.32883,253.83934,9.73164,249.2757,7.24414,241.18925z M36.63032,284.48721
			c-8.08645,2.49579-16.69469-2.06784-19.18495-10.15704c-1.20648-3.9176-0.81444-8.07266,1.10295-11.69485
			c1.91739-3.62497,5.13237-6.28363,9.04997-7.49011c1.49222-0.45828,3.01758-0.68744,4.53603-0.68744
			c2.46817,0,4.91702,0.60461,7.16019,1.79178c3.62496,1.91876,6.28363,5.13235,7.49011,9.05273
			C49.27488,273.38873,44.71953,281.9942,36.63032,284.48721z M51.63539,277.0827
			c-2.69456-6.53763,0.43207-14.04984,6.96832-16.74438c1.59437-0.65433,3.24535-0.96628,4.87009-0.96628
			c5.04264,0,9.83543,2.99271,11.87291,7.9346c1.30587,3.1694,1.30035,6.65356-0.01656,9.81747
			c-1.31691,3.16113-3.78509,5.62103-6.95175,6.92691c-3.16666,1.30032-6.65082,1.30032-9.81472-0.01657
			C55.40115,282.71753,52.93988,280.24936,51.63539,277.0827z M37.87269,312.10095
			c-5.40707-6.51276-4.5098-16.20877,2.00159-21.61722c2.86159-2.37433,6.33609-3.53384,9.79401-3.53384
			c4.41042,0,8.78908,1.88562,11.82046,5.53543c5.40707,6.51279,4.5098,16.20877-2.0016,21.61725
			C52.97715,319.50824,43.28114,318.61374,37.87269,312.10095z M67.42211,306.1362c0.66398,1.1409,1.42648,2.23904,2.40295,3.215
			c0.55148,0.55145,1.16507,0.99594,1.77348,1.44803c-2.30028,0.02762-4.54621,0.4866-6.64426,1.34592
			C66.14989,310.28848,66.96709,308.24756,67.42211,306.1362z M117.88855,348.66599c1.05498,0.80063,2.17794,1.51981,3.43274,2.0423
			c0.71143,0.29611,1.4465,0.479,2.17984,0.66605c-2.11134,0.89865-4.00665,2.17691-5.61482,3.76785
			C118.27972,353.01221,118.27817,350.82562,117.88855,348.66599z M139.17413,341.18622
			c-1.31691,3.16391-3.78508,5.62378-6.95174,6.92966c-3.16667,1.3031-6.65083,1.30035-9.81473-0.01932
			c-3.16252-1.31415-5.62241-3.78232-6.92828-6.95175c-1.30586-3.16666-1.29897-6.65082,0.01657-9.81195
			c1.31691-3.16391,3.78646-5.62381,6.95312-6.92969c1.57505-0.64877,3.23016-0.97455,4.88528-0.97455
			c1.6703,0,3.3406,0.3313,4.92945,0.9939c3.16113,1.31415,5.62241,3.78232,6.9269,6.94897
			C140.49657,334.53815,140.48967,338.02509,139.17413,341.18622z M138.95448,346.66299
			c-0.11319,1.90912,0.13857,3.81476,0.73473,5.66797c-0.17963-0.10284-0.34735-0.21878-0.53163-0.3168
			c-1.58195-0.83652-3.2495-1.42322-4.95619-1.76553C136.02611,349.3555,137.62704,348.14761,138.95448,346.66299z
			 M112.88698,330.24509c-1.04946,2.52063-1.34538,5.20621-1.02962,7.84555c-1.01909-0.87378-2.13084-1.65305-3.34628-2.2963
			c-1.13435-0.59979-2.31444-1.065-3.51988-1.41147c2.85521-0.60809,5.57773-1.99402,7.79087-4.20682
			c0.1534-0.15323,0.26107-0.33682,0.40722-0.49557C113.09869,329.87582,112.97015,330.04492,112.88698,330.24509z
			 M110.78323,328.17722c-4.99985,4.9971-13.13599,4.9971-18.13584,0c-4.99985-4.99985-4.99985-13.13599,0-18.13583
			c2.49992-2.49854,5.78392-3.74918,9.06792-3.74918s6.568,1.25064,9.06792,3.74918
			C115.78308,315.04123,115.78308,323.17737,110.78323,328.17722z M85.81712,317.35757
			c-1.14436-1.37836-2.46404-2.55859-3.91364-3.52557c1.99004-0.12839,3.94073-0.63361,5.77322-1.51709
			c-0.83704,1.72552-1.33382,3.58838-1.48963,5.53546C86.06094,317.68747,85.9493,317.51633,85.81712,317.35757z
			 M89.95973,307.35236c-4.99985,4.99707-13.13599,4.99707-18.13583,0c-4.99985-4.99985-4.99985-13.13599,0-18.13583
			c2.49992-2.50131,5.78392-3.74921,9.06792-3.74921s6.56799,1.25064,9.06792,3.74921
			C94.9582,294.21637,94.9582,302.35251,89.95973,307.35236z M81.64,340.77762c-6.51002,5.41397-16.20741,4.51117-21.61448-2.00159
			c-2.62002-3.15564-3.85411-7.1395-3.47588-11.22275c0.37823-4.08325,2.32323-7.77173,5.47747-10.39172
			c2.78153-2.31082,6.20771-3.54492,9.77884-3.54492c0.479,0,0.96076,0.02209,1.44253,0.06903
			c4.08325,0.37823,7.77309,2.32187,10.39311,5.47748s3.8541,7.13947,3.47588,11.22275
			C86.73923,334.46915,84.79424,338.15759,81.64,340.77762z M89.93212,330.64539c0.03952-0.42584,0.04591-0.84894,0.05591-1.27274
			c0.22967,0.2616,0.41188,0.55493,0.66053,0.80341c1.83042,1.83041,4.022,3.04382,6.33488,3.77612
			c-0.77924,0.13321-1.55589,0.29886-2.3234,0.53629c-3.26795,1.00494-6.10746,2.87885-8.30283,5.38913
			C88.36484,337.21478,89.61722,334.05087,89.93212,330.64539z M104.52306,366.53055
			c-3.91898,1.20374-8.07264,0.81445-11.69622-1.10709c-3.62357-1.91602-6.28225-5.12961-7.48872-9.04721
			c-1.20648-3.92035-0.81445-8.07263,1.10294-11.6976c1.9174-3.62219,5.13237-6.28363,9.05135-7.49011
			c1.49084-0.45828,3.0162-0.68466,4.53327-0.68466c2.46956,0,4.9184,0.60184,7.16296,1.79175
			c3.62357,1.91602,6.28225,5.12961,7.48872,9.04721c1.20648,3.92038,0.81445,8.07266-1.10294,11.69485
			C111.65565,362.66266,108.44205,365.32407,104.52306,366.53055z M144.22092,375.26028
			c-3.95901,7.48181-13.26575,10.34204-20.74757,6.38852c-7.47907-3.96176-10.34342-13.26849-6.38578-20.74756
			c1.91877-3.62497,5.13236-6.28638,9.05135-7.49286c1.49084-0.45831,3.0162-0.68469,4.53327-0.68469
			c2.46954,0,4.9184,0.60187,7.16295,1.789C145.31421,358.47449,148.17856,367.78122,144.22092,375.26028z M149.59486,359.41315
			c-3.16115-1.31415-5.62103-3.78232-6.92691-6.94897c-1.30586-3.16943-1.29897-6.65356,0.01657-9.81473
			c1.31691-3.16388,3.78647-5.62378,6.95312-6.92966c1.57506-0.6488,3.23016-0.97458,4.88528-0.97458
			c1.67029,0,3.34059,0.3313,4.92944,0.9939c3.16113,1.31415,5.62241,3.78235,6.9269,6.94901
			c1.30588,3.16666,1.29897,6.65356-0.01656,9.81473c-1.31691,3.16388-3.7851,5.62378-6.95175,6.92966
			C156.24292,360.73834,152.756,360.73007,149.59486,359.41315z M181.32498,380.04202
			c-0.37823,4.08051-2.32323,7.7717-5.47746,10.39172s-7.12982,3.8624-11.22275,3.47311
			c-4.08188-0.37823-7.77309-2.32184-10.39311-5.47748c-2.61864-3.15283-3.85411-7.13947-3.47449-11.22272
			c0.37823-4.08325,2.32323-7.77173,5.47746-10.39175c2.78015-2.30804,6.20633-3.54211,9.77608-3.54211
			c0.48038,0,0.96214,0.02484,1.44667,0.069C175.88341,364.12036,182.10492,371.61322,181.32498,380.04202z M200.00056,358.97281
			c0.63585,1.77658,1.57298,3.40961,2.76738,4.82452c-0.17583-0.02139-0.34718-0.05795-0.52422-0.07452
			c-1.7778-0.16702-3.51936-0.05869-5.19104,0.27332C198.32957,362.53427,199.334,360.83566,200.00056,358.97281z
			 M251.63863,367.76465c-1.22823-1.78488-2.77618-3.33093-4.57916-4.58298c1.30225-0.17529,2.60258-0.45691,3.87274-0.98007
			c0.7009-0.28922,1.35728-0.63846,1.99193-1.01324C252.08208,363.29971,251.65053,365.52356,251.63863,367.76465z
			 M249.85548,359.58984c-6.54591,2.68906-14.04706-0.43896-16.74438-6.97107c-2.6918-6.53763,0.43344-14.04706,6.97107-16.74438
			c6.54591-2.6918,14.04706,0.43622,16.7444,6.97107C259.51834,349.38309,256.3931,356.89252,249.85548,359.58984z
			 M260.58249,346.95288c1.27463,1.41354,2.77997,2.56274,4.43958,3.41998c-0.18411,0.05106-0.3703,0.08557-0.55356,0.14218
			c-1.68738,0.51901-3.26071,1.27274-4.69409,2.2197C260.39871,350.89188,260.67911,348.93307,260.58249,346.95288z
			 M235.28697,359.9736c-1.32831,0.10492-2.65488,0.34097-3.95937,0.74268c-1.21718,0.37479-2.37276,0.87448-3.46277,1.47565
			c1.58144-2.4447,2.51028-5.34909,2.51028-8.47159c0-0.14771-0.01811-0.29126-0.02226-0.43826
			c0.05211,0.13733,0.09007,0.27676,0.1465,0.41342C231.55745,356.26306,233.24724,358.36612,235.28697,359.9736z
			 M214.7254,366.54437c-7.07184,0-12.82402-5.75357-12.82402-12.82404s5.75218-12.82401,12.82402-12.82401
			c7.07047,0,12.82263,5.75354,12.82263,12.82401S221.79587,366.54437,214.7254,366.54437z M181.33568,368.84964
			c1.26135,0.32855,2.57706,0.52179,3.94005,0.52179c0.76698,0,1.51517-0.07382,2.25299-0.18082
			c-1.55814,1.60474-2.83295,3.49521-3.7202,5.60309C183.34573,372.65546,182.49057,370.65176,181.33568,368.84964z
			 M185.27573,366.54437c-7.07185,0-12.82402-5.75357-12.82402-12.82404s5.75217-12.82401,12.82402-12.82401
			c7.07184,0,12.82401,5.75354,12.82401,12.82401S192.34756,366.54437,185.27573,366.54437z M199.15161,397.10666
			c-4.08188-0.37823-7.7731-2.32184-10.39311-5.47748c-2.61864-3.15286-3.85411-7.13947-3.4745-11.22272
			c0.73576-7.94843,7.4418-13.93387,15.27425-13.93387c0.47072,0,0.94696,0.02206,1.42596,0.06625
			c4.08188,0.37823,7.7731,2.32184,10.39174,5.47748c2.62003,3.15283,3.85411,7.13947,3.47588,11.22272
			C215.07051,391.66232,207.58316,397.8714,199.15161,397.10666z M218.55052,379.26486
			c-0.46399-3.30264-1.81506-6.42377-3.99905-9.05414c-0.25865-0.31128-0.53888-0.59772-0.81479-0.88898
			c0.32854,0.02072,0.65501,0.04968,0.98872,0.04968c2.54875,0,4.94981-0.62531,7.0784-1.711
			c-0.42982,0.61496-0.83687,1.24997-1.19371,1.92358C219.01141,372.60437,218.32863,375.93668,218.55052,379.26486z
			 M250.24199,385.2655c-1.91876,3.62494-5.13235,6.28638-9.05273,7.49286c-8.08368,2.49026-16.69469-2.07062-19.18356-10.15707
			c-1.20648-3.9176-0.81444-8.07263,1.10295-11.69482c1.91876-3.62497,5.13237-6.28363,9.05273-7.49011
			c1.49084-0.45828,3.01758-0.68744,4.53603-0.68744c2.46817,0,4.91702,0.60461,7.15881,1.79178
			c3.62495,1.91599,6.28363,5.12961,7.49011,9.04996C252.5528,377.48825,252.16077,381.64331,250.24199,385.2655z
			 M284.48721,363.37219c2.49026,8.08643-2.06509,16.69193-10.15704,19.18494c-8.07541,2.48474-16.6947-2.06784-19.18495-10.15707
			c-1.20648-3.9176-0.81445-8.06989,1.10432-11.69482c1.91876-3.62497,5.13235-6.28363,9.05273-7.49011
			c1.49084-0.45831,3.01758-0.68744,4.53326-0.68744c2.47095,0,4.91702,0.60461,7.16159,1.79178
			C280.62207,356.23822,283.28076,359.45181,284.48721,363.37219z M277.0827,348.36713
			c-6.54037,2.68628-14.04706-0.439-16.74438-6.9711c-2.6918-6.53763,0.43344-14.04706,6.97107-16.74438
			c6.54315-2.6835,14.04706,0.43622,16.74438,6.9711C286.74557,338.16037,283.62033,345.6698,277.0827,348.36713z
			 M312.10095,362.12704c-3.15561,2.62277-7.14499,3.88724-11.22272,3.47589c-4.08325-0.37823-7.77173-2.32187-10.39175-5.47748
			c-2.62-3.15561-3.8541-7.1395-3.47586-11.22275s2.32184-7.7717,5.47748-10.39172c2.7829-2.31082,6.20908-3.54214,9.78159-3.54214
			c0.47763,0,0.95801,0.02209,1.44113,0.06625c4.08328,0.37823,7.77448,2.32462,10.39175,5.47748
			C319.51102,347.02536,318.61099,356.72137,312.10095,362.12704z M350.71106,278.67847
			c0.29504-0.71024,0.47797-1.44391,0.66501-2.17554c0.89847,2.10858,2.17517,4.0018,3.76334,5.60861
			c-2.11823-0.39066-4.29254-0.39066-6.44254-0.00485C349.48697,281.06726,350.18634,279.93878,350.71106,278.67847z
			 M350.2493,265.7937c-0.89468-1.82559-2.10358-3.42618-3.59009-4.75345c0.29782,0.01724,0.59686,0.08765,0.89346,0.08765
			c1.62112,0,3.21567-0.26849,4.73895-0.75232c-0.08972,0.15805-0.19205,0.30371-0.27747,0.46521
			C351.17831,262.42206,350.59131,264.0882,350.2493,265.7937z M342.64944,257.31522
			c-6.52658-2.71664-9.62698-10.23988-6.91034-16.76646c1.31418-3.16115,3.78235-5.62103,6.94901-6.92691
			c3.16943-1.30586,6.65082-1.30586,9.81473,0.01657c6.52933,2.71388,9.62973,10.23712,6.91309,16.76646
			C356.69928,256.93146,349.1705,260.02634,342.64944,257.31522z M348.11588,267.77872
			c1.30588,3.16391,1.30035,6.65082-0.01657,9.81198c-2.71664,6.52658-10.24817,9.63251-16.76645,6.91309
			c-6.52936-2.71942-9.62976-10.2399-6.91034-16.76648c1.31415-3.16113,3.78232-5.62103,6.94897-6.92688
			c3.16943-1.30862,6.65082-1.30313,9.81473,0.01657C344.35013,262.14114,346.81003,264.60931,348.11588,267.77872z
			 M330.24509,287.11554c1.96017,0.81442,3.99216,1.20093,5.99097,1.20093c0.61136,0,1.21582-0.06281,1.81818-0.13388
			c-0.85913,1.00839-1.62491,2.10718-2.25989,3.30609c-0.60013,1.13538-1.06534,2.31631-1.41165,3.5228
			c-0.60739-2.85675-1.9928-5.57962-4.20663-7.79379c-0.12372-0.12357-0.27106-0.20639-0.39789-0.3251
			C329.9357,286.96436,330.08411,287.04858,330.24509,287.11554z M328.17722,307.35236
			c-4.99985,4.99707-13.13046,4.99707-18.13583,0c-4.99985-4.99985-4.99985-13.13599,0-18.13583
			c2.50131-2.49857,5.78394-3.74921,9.06656-3.74921c3.28537,0,6.56799,1.25064,9.06927,3.74921
			C333.17706,294.21637,333.17706,302.35251,328.17722,307.35236z M310.79681,328.405
			c0.0264,2.29837,0.48642,4.54153,1.34573,6.63702c-1.85355-1.19339-3.89087-2.00989-5.99875-2.46405
			c1.14642-0.67157,2.24283-1.43701,3.2074-2.40192C309.90198,329.62527,310.34561,329.01236,310.79681,328.405z
			 M313.83063,318.09814c-0.12872-1.99814-0.63776-3.95557-1.5271-5.79425c1.76453,0.85446,3.63791,1.35211,5.55341,1.50464
			c-0.16495,0.12839-0.33768,0.2395-0.49936,0.37408C315.97836,315.32697,314.79794,316.64734,313.83063,318.09814z
			 M307.35236,328.17722c-2.42123,2.42126-5.64313,3.75473-9.06653,3.75473c-3.42621,0-6.64532-1.33347-9.06656-3.75473
			c-4.99985-4.99985-4.99985-13.13599,0-18.13583c2.42123-2.42123,5.64035-3.7547,9.06656-3.7547
			c3.4234,0,6.64529,1.33347,9.06653,3.7547C312.3522,315.04123,312.3522,323.17737,307.35236,328.17722z M344.25348,329.58249
			c-0.3782,4.08325-2.32184,7.7717-5.47745,10.39172c-3.15564,2.62277-7.14502,3.88171-11.22275,3.47589
			c-4.08325-0.37823-7.7717-2.32187-10.39172-5.47748c-2.62003-3.15286-3.85413-7.1395-3.47589-11.22275
			s2.32462-7.77448,5.47748-10.39172c2.86298-2.37708,6.33884-3.53384,9.79538-3.53384c4.40906,0,8.78772,1.88562,11.81909,5.53543
			C343.39764,321.51535,344.63171,325.49924,344.25348,329.58249z M329.35904,310.01791
			c0.26675-0.2326,0.56287-0.41275,0.81702-0.66672c1.83148-1.83182,3.04449-4.0246,3.77646-6.33887
			c0.13321,0.77994,0.29886,1.5585,0.53595,2.32739c1.00787,3.27707,2.88919,6.12488,5.41019,8.32385
			C336.80756,311.33414,333.10736,310.10144,329.35904,310.01791z M365.42899,307.17288
			c-3.95901,7.47906-13.25745,10.35309-20.75034,6.3858c-3.62219-1.91602-6.28363-5.13239-7.49011-9.04999
			c-1.2037-3.9176-0.81168-8.07263,1.10712-11.6976c1.91599-3.62219,5.12958-6.28363,9.04996-7.49011
			c3.9176-1.20096,8.06989-0.81168,11.6976,1.10709C366.52228,290.38434,369.38525,299.69107,365.42899,307.17288z
			 M368.10974,253.99947c2.41574,0,4.87009,0.57149,7.15054,1.78073c3.62497,1.916,6.28638,5.13237,7.49286,9.04997
			c1.20374,3.9176,0.81168,8.07263-1.10709,11.69485c-1.91602,3.62494-5.13235,6.28638-9.04996,7.49286
			c-3.9259,1.20096-8.07541,0.81168-11.69485-1.10709c-3.62497-1.91602-6.28638-5.13239-7.49286-9.04999
			c-1.20374-3.9176-0.81168-8.07263,1.10431-11.69482C357.26526,256.96735,362.59915,253.99947,368.10974,253.99947z
			 M353.59061,231.02667c-7.97052-3.31023-17.14471,0.46935-20.46323,8.43431c-2.60553,6.26637-0.80856,13.26988,3.94641,17.59471
			c-6.42062-0.32507-12.65524,3.33163-15.26303,9.59387c-2.57825,6.19528-0.85068,13.11111,3.78494,17.44699
			c-5.77151-2.62967-12.80884-1.62335-17.55313,3.12112c-4.82715,4.8273-5.77203,12.02612-2.96133,17.85492
			c-2.09995-1.01874-4.39264-1.61301-6.79541-1.61301c-4.18265,0-8.1113,1.62613-11.0654,4.58295
			c-6.10141,6.10144-6.10141,16.0321,0,22.13351c1.93051,1.93259,4.30017,3.22879,6.86203,3.94244
			c-1.18835,0.60187-2.33273,1.33072-3.39996,2.21695c-1.23303,1.02359-2.29337,2.19623-3.19925,3.46759
			c0.6507-2.99826,0.43707-6.21323-0.81772-9.25702c-3.28815-7.97879-12.45132-11.7832-20.43286-8.5061
			c-6.27429,2.58826-9.95551,8.80978-9.65097,15.228c-4.30705-4.76724-11.30244-6.58661-17.57625-4.00525
			c-6.17165,2.54547-9.83456,8.60684-9.66339,14.91327c-2.24489-5.89783-7.9415-10.10669-14.61665-10.10669
			c-6.78558,0-12.55933,4.3483-14.72484,10.39865c-2.16553-6.05035-7.93927-10.39865-14.72484-10.39865
			c-8.63034,0-15.65111,7.02078-15.65111,15.65109c0,2.76358,0.72679,5.35876,1.98918,7.61435
			c-1.24289-0.4003-2.54237-0.68329-3.89552-0.80893c-1.59714-0.15115-3.17754-0.07245-4.71808,0.18637
			c2.6516-1.70343,4.73534-4.14951,5.9715-7.12155c1.6068-3.85962,1.61507-8.11404,0.02208-11.97919
			s-4.59677-6.87723-8.45502-8.48401c-3.86514-1.60681-8.11543-1.61508-11.9792-0.01932
			c-2.21521,0.91312-4.10396,2.33011-5.65486,4.06461c0.1384-2.32324-0.18652-4.66302-1.09949-6.8779
			c-1.593-3.86514-4.59677-6.8772-8.45502-8.48401c-3.86377-1.60678-8.11544-1.61508-11.97921-0.01932
			c-2.12497,0.87589-3.9566,2.20935-5.47401,3.84445c0.93419-2.02646,1.46944-4.22821,1.46944-6.52795
			c0-4.1799-1.6275-8.10855-4.58434-11.0654c-2.95546-2.95682-6.88687-4.58295-11.06676-4.58295
			c-2.40208,0-4.69477,0.59357-6.79472,1.61163c2.81-5.82742,1.86476-13.02695-2.96202-17.85355
			c-6.10141-6.10141-16.03209-6.10141-22.13351,0c-1.97346,1.9726-3.23948,4.36209-3.93658,6.8772
			c-0.60358-1.19336-1.33434-2.34323-2.22419-3.41513c-1.04273-1.25549-2.23057-2.31635-3.50434-3.21567
			c1.10019,0.24295,2.21211,0.39136,3.32903,0.39136c2.02092,0,4.04184-0.39758,5.96613-1.19269
			c3.86515-1.59299,6.87859-4.59399,8.48539-8.45364c1.6068-3.85962,1.6137-8.11404,0.02071-11.97919
			c-2.59345-6.28848-8.84291-9.97623-15.27925-9.64841c1.71792-1.53708,3.12335-3.40822,4.0358-5.59962
			c1.6068-3.85962,1.6137-8.1113,0.02071-11.97644c-2.54324-6.17044-8.5991-9.83681-14.90343-9.66771
			c5.89177-2.248,10.09546-7.9422,10.09546-14.61372c0-6.7854-4.34812-12.55898-10.39829-14.72484
			c6.05017-2.16586,10.39829-7.93944,10.39829-14.72484c0-8.63033-7.02077-15.65109-15.6511-15.65109
			c-2.7622,0-5.35513,0.72609-7.6102,1.98709c0.40101-1.25272,0.68209-2.55307,0.80616-3.89482
			c0.15046-1.62337,0.06074-3.21222-0.20344-4.74724c1.70429,2.66557,4.15521,4.76173,7.13724,6.0034
			c1.93948,0.80617,3.97834,1.20924,6.01721,1.20924c2.01954,0,4.03909-0.39479,5.962-1.18715
			c3.86515-1.593,6.87859-4.59677,8.484-8.45641c1.6068-3.85962,1.6137-8.11404,0.02071-11.9792
			c-0.91331-2.21625-2.33186-4.10603-4.06755-5.65692c0.3068,0.01794,0.61031,0.09111,0.91745,0.09111
			c2.01954,0,4.03908-0.39481,5.96199-1.18715c3.86515-1.593,6.87859-4.59677,8.48401-8.45641
			c1.6068-3.85963,1.6137-8.11405,0.02071-11.9792c-0.88484-2.14723-2.23955-3.99215-3.89949-5.51888
			c2.08684,0.96905,4.32413,1.50741,6.58163,1.50741c4.00733,0,8.01604-1.52673,11.06675-4.57745
			c4.83109-4.83144,5.77322-12.03856,2.95409-17.86942c2.14912,1.03945,4.4639,1.62199,6.80266,1.62199
			c4.00733,0,8.01604-1.52398,11.06676-4.57468c2.95684-2.95684,4.58434-6.88549,4.58434-11.06538
			c0-4.18264-1.6275-8.11129-4.58434-11.06813c-1.9871-1.98711-4.3961-3.25915-6.93105-3.95142
			c1.21632-0.61497,2.39363-1.3183,3.46759-2.21073c1.25618-1.0429,2.31702-2.23074,3.21688-3.50555
			c-0.6814,3.09212-0.43172,6.30917,0.80012,9.29776c1.59299,3.86515,4.59539,6.8772,8.45502,8.484
			c1.9381,0.80616,3.97559,1.21201,6.01169,1.21201c2.02093,0,4.04185-0.39756,5.96613-1.19268
			c3.86516-1.59023,6.87859-4.594,8.48538-8.45364c0.92056-2.21142,1.2541-4.54845,1.12434-6.87168
			c1.54469,1.73932,3.42844,3.16252,5.63968,4.08325c1.9381,0.80616,3.97559,1.21201,6.01306,1.21201
			c2.01955,0,4.04047-0.39756,5.96477-1.19268c3.86514-1.59023,6.87859-4.59401,8.48538-8.45363
			c0.87207-2.09478,1.23029-4.30343,1.15988-6.50519c2.23265,5.92127,7.94151,10.15223,14.63478,10.15223
			c6.78557,0,12.55931-4.34829,14.72484-10.39864c2.16551,6.05034,7.93925,10.39864,14.72484,10.39864
			c8.62895,0,15.64972-7.02077,15.64972-15.6511c0-2.76289-0.72644-5.35668-1.98865-7.61158
			c1.24323,0.40032,2.54288,0.6833,3.89638,0.80892c0.57149,0.05246,1.14021,0.0773,1.70619,0.0773
			c1.0096,0,2.00728-0.09456,2.98927-0.25814c-2.57291,1.65926-4.68874,4.08049-5.95164,7.11326
			c-3.31299,7.96773,0.47211,17.14746,8.43707,20.46597c1.96019,0.81444,3.99216,1.20096,5.99374,1.20096
			c4.40076,0,8.62498-1.89323,11.59683-5.16619c-0.33389,6.42513,3.32593,12.6701,9.59525,15.28184
			c1.96017,0.81445,3.99213,1.20096,5.99374,1.20096c4.35208,0,8.52939-1.85596,11.49692-5.06197
			c-2.67471,5.78737-1.68341,12.86543,3.0802,17.62923c3.05072,3.0507,7.05667,4.57468,11.0654,4.57468
			c2.33856,0,4.65369-0.58323,6.80316-1.62267c-2.81982,5.83085-1.87769,13.03867,2.95358,17.8701
			c3.05069,3.05071,7.05942,4.57745,11.06537,4.57745c4.0087,0,8.01743-1.52673,11.06812-4.57745
			c1.97278-1.9726,3.23846-4.3621,3.93555-6.87651c0.60361,1.19336,1.33417,2.34325,2.22385,3.41444
			c1.0379,1.24927,2.22006,2.30252,3.48642,3.19979c-3.00208-0.65569-6.22375-0.44311-9.27585,0.81721
			c-3.86514,1.59023-6.87723,4.594-8.48401,8.45363c-1.60681,3.85963-1.61508,8.11405-0.02209,11.97921
			c2.48752,6.03516,8.33493,9.68497,14.4888,9.68497c0.28143,0,0.56458-0.06696,0.84689-0.08214
			c-1.74277,1.54536-3.16891,3.43102-4.09085,5.64519c-1.60681,3.85963-1.61508,8.11406-0.01935,11.9792
			c1.59302,3.86516,4.59402,6.87721,8.45364,8.48401c1.93811,0.80615,3.97284,1.21201,6.01031,1.21201
			c0.16116,0,0.32043-0.0428,0.48141-0.04762c-5.91385,2.23625-10.13876,7.9415-10.13876,14.63028
			c0,6.7854,4.34793,12.55898,10.39673,14.72484c-6.0488,2.16586-10.39673,7.93944-10.39673,14.72484
			c0,8.63034,7.02075,15.65111,15.64832,15.65111c2.76291,0,5.35654-0.7261,7.61212-1.98779
			c-0.40137,1.2534-0.68262,2.55376-0.80667,3.89552c-0.14755,1.59438-0.06781,3.17218,0.19031,4.71065
			C359.05597,234.4142,356.63062,232.29182,353.59061,231.02667z M393.90964,235.37497
			c-0.37823,4.08325-2.32462,7.77448-5.47748,10.39449c-3.15561,2.62003-7.14224,3.8624-11.22275,3.47311
			c-4.08325-0.37823-7.77448-2.32185-10.39447-5.47746c-2.61728-3.15286-3.85135-7.13948-3.47311-11.22275
			c0.73438-7.94839,7.4404-13.93387,15.27286-13.93387c0.47211,0,0.94696,0.02209,1.42734,0.06627
			C388.46805,219.45607,394.69095,226.94894,393.90964,235.37497z M380.40646,214.71574
			c-4.08051-0.37823-7.77173-2.32185-10.39175-5.47748c-2.62-3.15286-3.8541-7.13948-3.47586-11.22273
			c0.73712-7.94841,7.44318-13.93387,15.27286-13.93387c0.47211,0,0.94696,0.02208,1.42734,0.06625
			c8.42603,0.78131,14.64893,8.27419,13.86761,16.70021c-0.37823,4.08325-2.32184,7.77448-5.47748,10.3945
			C388.47635,213.85988,384.47867,215.0912,380.40646,214.71574z" fill="#210070" style=""></path>
		<circle cx="200" cy="200" r="138.68021" fill="#210070" style=""></circle>
	</g>
</g>


<desc>Created with Snap</desc><defs></defs></g><g><g transform="matrix(1.024,0,0,-1.024,0,0)"><path d="M153 -87Q94 -87 64 -68Q34 -48 34 -3Q34 5 43 5Q51 5 69 0Q88 -5 139 -5Q227 -5 300 14Q374 33 428 65Q482 98 512 138Q542 179 542 222Q542 262 518 286Q495 310 457 322Q419 335 374 339Q329 344 285 344Q266 344 247 343Q228 343 211 343Q189 265 167 183Q146 102 123 25Q95 25 74 40Q54 55 54 77Q54 87 58 102Q62 117 68 135Q74 154 88 199Q103 244 123 305Q144 366 169 433Q194 501 221 565Q248 630 274 681Q233 673 206 660Q180 648 164 638Q149 629 141 629Q136 629 127 635Q118 642 111 650Q104 658 104 664Q157 686 213 703Q270 720 351 720Q386 720 428 714Q470 709 508 692Q546 676 570 644Q595 612 595 558Q595 513 576 480Q557 448 525 425Q493 403 455 389Q417 375 380 367Q446 361 488 343Q531 326 555 303Q580 280 589 255Q599 230 599 206Q599 148 568 101Q538 54 488 19Q438 -16 378 -40Q318 -63 259 -75Q200 -87 153 -87ZM220 376Q275 378 329 388Q384 399 428 421Q472 443 498 478Q525 514 525 566Q525 616 499 642Q474 669 433 679Q392 690 346 690Q343 690 341 690Q339 690 337 689Q302 621 273 541Q245 461 220 376ZM689 -47Q657 -47 633 -26Q610 -4 610 39Q610 75 626 116Q642 157 670 197Q698 237 734 270Q770 303 810 323Q851 343 891 343Q933 343 961 321Q990 300 990 265Q990 238 973 227Q956 216 931 220Q933 228 934 237Q936 247 936 256Q936 277 927 293Q918 309 892 309Q864 309 835 290Q806 271 779 240Q752 209 731 172Q710 135 698 99Q686 63 686 35Q686 1 711 1Q734 1 761 23Q789 45 817 79Q846 113 872 148Q898 184 917 211Q921 216 924 216Q929 215 940 211Q951 208 960 202Q969 196 969 186Q969 176 960 160Q951 145 940 126Q929 107 920 88Q911 69 911 51Q911 38 918 25Q926 13 943 13Q968 13 1011 49Q1055 86 1100 169L1116 153Q1093 99 1059 58Q1026 17 989 -7Q952 -30 915 -30Q875 -30 856 -6Q837 19 835 48Q835 51 835 54Q836 58 836 61Q795 10 761 -19Q727 -47 689 -47ZM1409 -20Q1372 -20 1352 -1Q1333 18 1333 47Q1333 68 1340 90Q1347 113 1354 136Q1361 160 1361 182Q1361 206 1350 215Q1339 224 1324 224Q1294 224 1262 199Q1231 174 1201 136Q1171 99 1145 58Q1119 17 1100 -15Q1082 -15 1066 -9Q1050 -3 1039 12Q1040 17 1050 42Q1061 68 1074 104Q1087 141 1097 180Q1108 219 1108 252Q1115 259 1129 267Q1143 275 1158 275Q1190 275 1190 246Q1190 233 1184 204Q1178 176 1168 143Q1195 180 1226 214Q1258 248 1293 270Q1328 292 1364 292Q1405 292 1424 263Q1444 235 1444 200Q1444 170 1434 143Q1424 117 1414 93Q1405 70 1405 47Q1405 30 1412 22Q1420 15 1431 15Q1455 15 1480 38Q1506 62 1529 97Q1553 133 1571 169L1586 156Q1565 107 1539 67Q1513 27 1481 3Q1449 -20 1409 -20ZM1601 -47Q1569 -47 1545 -26Q1522 -4 1522 39Q1522 75 1538 116Q1554 157 1582 197Q1610 237 1646 270Q1682 303 1722 323Q1763 343 1803 343Q1845 343 1873 321Q1902 300 1902 265Q1902 238 1885 227Q1868 216 1843 220Q1845 228 1846 237Q1848 247 1848 256Q1848 277 1839 293Q1830 309 1804 309Q1776 309 1747 290Q1718 271 1691 240Q1664 209 1643 172Q1622 135 1610 99Q1598 63 1598 35Q1598 1 1623 1Q1646 1 1673 23Q1701 45 1729 79Q1758 113 1784 148Q1810 184 1829 211Q1833 216 1836 216Q1841 215 1852 211Q1863 208 1872 202Q1881 196 1881 186Q1881 176 1872 160Q1863 145 1852 126Q1841 107 1832 88Q1823 69 1823 51Q1823 38 1830 25Q1838 13 1855 13Q1880 13 1923 49Q1967 86 2012 169L2028 153Q2005 99 1971 58Q1938 17 1901 -7Q1864 -30 1827 -30Q1787 -30 1768 -6Q1749 19 1747 48Q1747 51 1747 54Q1748 58 1748 61Q1707 10 1673 -19Q1639 -47 1601 -47ZM2321 -20Q2284 -20 2264 -1Q2245 18 2245 47Q2245 68 2252 90Q2259 113 2266 136Q2273 160 2273 182Q2273 206 2262 215Q2251 224 2236 224Q2206 224 2174 199Q2143 174 2113 136Q2083 99 2057 58Q2031 17 2012 -15Q1994 -15 1978 -9Q1962 -3 1951 12Q1952 17 1962 42Q1973 68 1986 104Q1999 141 2009 180Q2020 219 2020 252Q2027 259 2041 267Q2055 275 2070 275Q2102 275 2102 246Q2102 233 2096 204Q2090 176 2080 143Q2107 180 2138 214Q2170 248 2205 270Q2240 292 2276 292Q2317 292 2336 263Q2356 235 2356 200Q2356 170 2346 143Q2336 117 2326 93Q2317 70 2317 47Q2317 30 2324 22Q2332 15 2343 15Q2367 15 2392 38Q2418 62 2441 97Q2465 133 2483 169L2498 156Q2477 107 2451 67Q2425 27 2393 3Q2361 -20 2321 -20ZM2513 -47Q2481 -47 2457 -26Q2434 -4 2434 39Q2434 75 2450 116Q2466 157 2494 197Q2522 237 2558 270Q2594 303 2634 323Q2675 343 2715 343Q2757 343 2785 321Q2814 300 2814 265Q2814 238 2797 227Q2780 216 2755 220Q2757 228 2758 237Q2760 247 2760 256Q2760 277 2751 293Q2742 309 2716 309Q2688 309 2659 290Q2630 271 2603 240Q2576 209 2555 172Q2534 135 2522 99Q2510 63 2510 35Q2510 1 2535 1Q2558 1 2585 23Q2613 45 2641 79Q2670 113 2696 148Q2722 184 2741 211Q2745 216 2748 216Q2753 215 2764 211Q2775 208 2784 202Q2793 196 2793 186Q2793 176 2784 160Q2775 145 2764 126Q2753 107 2744 88Q2735 69 2735 51Q2735 38 2742 25Q2750 13 2767 13Q2792 13 2835 49Q2879 86 2924 169L2940 153Q2917 99 2883 58Q2850 17 2813 -7Q2776 -30 2739 -30Q2699 -30 2680 -6Q2661 19 2659 48Q2659 51 2659 54Q2660 58 2660 61Q2619 10 2585 -19Q2551 -47 2513 -47ZM3314 -87Q3255 -87 3225 -68Q3195 -48 3195 -3Q3195 5 3204 5Q3212 5 3230 0Q3249 -5 3300 -5Q3388 -5 3461 14Q3535 33 3589 65Q3643 98 3673 138Q3703 179 3703 222Q3703 262 3679 286Q3656 310 3618 322Q3580 335 3535 339Q3490 344 3446 344Q3427 344 3408 343Q3389 343 3372 343Q3350 265 3328 183Q3307 102 3284 25Q3256 25 3235 40Q3215 55 3215 77Q3215 87 3219 102Q3223 117 3229 135Q3235 154 3249 199Q3264 244 3284 305Q3305 366 3330 433Q3355 501 3382 565Q3409 630 3435 681Q3394 673 3367 660Q3341 648 3325 638Q3310 629 3302 629Q3297 629 3288 635Q3279 642 3272 650Q3265 658 3265 664Q3318 686 3374 703Q3431 720 3512 720Q3547 720 3589 714Q3631 709 3669 692Q3707 676 3731 644Q3756 612 3756 558Q3756 513 3737 480Q3718 448 3686 425Q3654 403 3616 389Q3578 375 3541 367Q3607 361 3649 343Q3692 326 3716 303Q3741 280 3750 255Q3760 230 3760 206Q3760 148 3729 101Q3699 54 3649 19Q3599 -16 3539 -40Q3479 -63 3420 -75Q3361 -87 3314 -87ZM3381 376Q3436 378 3490 388Q3545 399 3589 421Q3633 443 3659 478Q3686 514 3686 566Q3686 616 3660 642Q3635 669 3594 679Q3553 690 3507 690Q3504 690 3502 690Q3500 690 3498 689Q3463 621 3434 541Q3406 461 3381 376ZM3850 -47Q3818 -47 3794 -26Q3771 -4 3771 39Q3771 75 3787 116Q3803 157 3831 197Q3859 237 3895 270Q3931 303 3971 323Q4012 343 4052 343Q4094 343 4122 321Q4151 300 4151 265Q4151 238 4134 227Q4117 216 4092 220Q4094 228 4095 237Q4097 247 4097 256Q4097 277 4088 293Q4079 309 4053 309Q4025 309 3996 290Q3967 271 3940 240Q3913 209 3892 172Q3871 135 3859 99Q3847 63 3847 35Q3847 1 3872 1Q3895 1 3922 23Q3950 45 3978 79Q4007 113 4033 148Q4059 184 4078 211Q4082 216 4085 216Q4090 215 4101 211Q4112 208 4121 202Q4130 196 4130 186Q4130 176 4121 160Q4112 145 4101 126Q4090 107 4081 88Q4072 69 4072 51Q4072 38 4079 25Q4087 13 4104 13Q4129 13 4172 49Q4216 86 4261 169L4277 153Q4254 99 4220 58Q4187 17 4150 -7Q4113 -30 4076 -30Q4036 -30 4017 -6Q3998 19 3996 48Q3996 51 3996 54Q3997 58 3997 61Q3956 10 3922 -19Q3888 -47 3850 -47ZM4570 -20Q4533 -20 4513 -1Q4494 18 4494 47Q4494 68 4501 90Q4508 113 4515 136Q4522 160 4522 182Q4522 206 4511 215Q4500 224 4485 224Q4455 224 4423 199Q4392 174 4362 136Q4332 99 4306 58Q4280 17 4261 -15Q4243 -15 4227 -9Q4211 -3 4200 12Q4201 17 4211 42Q4222 68 4235 104Q4248 141 4258 180Q4269 219 4269 252Q4276 259 4290 267Q4304 275 4319 275Q4351 275 4351 246Q4351 233 4345 204Q4339 176 4329 143Q4356 180 4387 214Q4419 248 4454 270Q4489 292 4525 292Q4566 292 4585 263Q4605 235 4605 200Q4605 170 4595 143Q4585 117 4575 93Q4566 70 4566 47Q4566 30 4573 22Q4581 15 4592 15Q4616 15 4641 38Q4667 62 4690 97Q4714 133 4732 169L4747 156Q4726 107 4700 67Q4674 27 4642 3Q4610 -20 4570 -20ZM5019 -38Q4989 -38 4967 -19Q4945 1 4932 31Q4919 61 4912 92Q4906 123 4906 146Q4919 148 4940 154Q4961 160 4983 170Q5005 181 5020 197Q5035 214 5035 237Q5035 256 5022 267Q5009 279 4989 279Q4960 279 4934 259Q4908 240 4886 208Q4865 177 4848 140Q4831 104 4818 70Q4805 37 4796 13Q4787 -13 4776 -22Q4766 -31 4749 -31Q4739 -31 4730 -24Q4721 -16 4716 1Q4712 19 4712 50Q4712 108 4729 179Q4746 251 4774 326Q4803 401 4837 470Q4871 539 4905 594Q4940 649 4970 681Q5000 714 5019 714Q5035 714 5045 694Q5056 674 5056 644Q5056 610 5041 568Q5026 526 4998 483Q4971 441 4933 403Q4896 365 4850 338Q4821 267 4805 199Q4790 132 4787 82Q4804 122 4827 167Q4850 212 4878 251Q4907 291 4940 315Q4973 340 5010 340Q5049 340 5077 313Q5106 286 5106 245Q5106 215 5090 192Q5074 170 5050 156Q5027 142 5003 135Q4979 128 4963 128Q4965 116 4970 96Q4976 76 4985 55Q4994 35 5008 21Q5022 7 5041 7Q5068 7 5094 29Q5120 52 5145 89Q5170 127 5190 173L5203 158Q5187 109 5157 63Q5128 18 5092 -10Q5056 -38 5019 -38ZM4875 396Q4909 425 4940 464Q4972 503 4992 544Q5013 586 5014 619Q5014 622 5013 623Q5013 624 5013 624Q5003 622 4980 590Q4958 558 4930 507Q4902 457 4875 396Z" fill="#7adac0" style=""></path></g></g><g transform="matrix(2,0,0,2,1381.8881,-1222.6561)"><g transform="matrix(1.024,0,0,-1.024,0,0)"><path d="M153 -87Q94 -87 64 -68Q34 -48 34 -3Q34 5 43 5Q51 5 69 0Q88 -5 139 -5Q227 -5 300 14Q374 33 428 65Q482 98 512 138Q542 179 542 222Q542 262 518 286Q495 310 457 322Q419 335 374 339Q329 344 285 344Q266 344 247 343Q228 343 211 343Q189 265 167 183Q146 102 123 25Q95 25 74 40Q54 55 54 77Q54 87 58 102Q62 117 68 135Q74 154 88 199Q103 244 123 305Q144 366 169 433Q194 501 221 565Q248 630 274 681Q233 673 206 660Q180 648 164 638Q149 629 141 629Q136 629 127 635Q118 642 111 650Q104 658 104 664Q157 686 213 703Q270 720 351 720Q386 720 428 714Q470 709 508 692Q546 676 570 644Q595 612 595 558Q595 513 576 480Q557 448 525 425Q493 403 455 389Q417 375 380 367Q446 361 488 343Q531 326 555 303Q580 280 589 255Q599 230 599 206Q599 148 568 101Q538 54 488 19Q438 -16 378 -40Q318 -63 259 -75Q200 -87 153 -87ZM220 376Q275 378 329 388Q384 399 428 421Q472 443 498 478Q525 514 525 566Q525 616 499 642Q474 669 433 679Q392 690 346 690Q343 690 341 690Q339 690 337 689Q302 621 273 541Q245 461 220 376ZM789 -87Q730 -87 700 -68Q670 -48 670 -3Q670 5 679 5Q687 5 705 0Q724 -5 775 -5Q863 -5 936 14Q1010 33 1064 65Q1118 98 1148 138Q1178 179 1178 222Q1178 262 1154 286Q1131 310 1093 322Q1055 335 1010 339Q965 344 921 344Q902 344 883 343Q864 343 847 343Q825 265 803 183Q782 102 759 25Q731 25 710 40Q690 55 690 77Q690 87 694 102Q698 117 704 135Q710 154 724 199Q739 244 759 305Q780 366 805 433Q830 501 857 565Q884 630 910 681Q869 673 842 660Q816 648 800 638Q785 629 777 629Q772 629 763 635Q754 642 747 650Q740 658 740 664Q793 686 849 703Q906 720 987 720Q1022 720 1064 714Q1106 709 1144 692Q1182 676 1206 644Q1231 612 1231 558Q1231 513 1212 480Q1193 448 1161 425Q1129 403 1091 389Q1053 375 1016 367Q1082 361 1124 343Q1167 326 1191 303Q1216 280 1225 255Q1235 230 1235 206Q1235 148 1204 101Q1174 54 1124 19Q1074 -16 1014 -40Q954 -63 895 -75Q836 -87 789 -87ZM856 376Q911 378 965 388Q1020 399 1064 421Q1108 443 1134 478Q1161 514 1161 566Q1161 616 1135 642Q1110 669 1069 679Q1028 690 982 690Q979 690 977 690Q975 690 973 689Q938 621 909 541Q881 461 856 376Z" fill="#7adac0" style=""></path></g></g></g></svg>